<svg width="692" height="120" viewBox="0 0 692 120" fill="none" xmlns="http://www.w3.org/2000/svg">
<path fill-rule="evenodd" clip-rule="evenodd" d="M91.254 0H0V117.421H21.9542V64.1087H83.6033V46.6346H21.9542V17.4741H91.254V0ZM150.793 14.4873C120.523 14.4873 97.9038 36.1908 97.9038 67.2434C97.9038 98.2961 120.523 120.111 150.793 120C181.174 120 204.016 98.2961 204.016 67.2434C204.016 36.1908 181.174 14.4873 150.793 14.4873ZM150.904 29.6241C169.089 29.6241 181.618 45.6513 181.618 67.2434C181.618 88.8356 169.089 104.863 150.904 104.863C133.053 104.863 120.634 88.8356 120.634 67.2434C120.634 45.6513 133.053 29.6241 150.904 29.6241ZM220.209 0H241.72V117.31H220.209V0ZM283.19 0H261.679V117.199H283.19V82.6958L298.159 69.2285L333.751 117.199H361.028L315.678 56.8742L355.594 17.2515H328.762L283.19 59.3228V0ZM371.884 0H393.395V117.31H371.884V0ZM461.047 14.4873C430.888 14.4873 408.158 36.1908 408.158 67.2434C408.158 98.2961 430.888 120.111 461.047 120C491.428 120 514.27 98.2961 514.27 67.2434C514.27 36.1908 491.428 14.4873 461.047 14.4873ZM461.158 29.6241C479.342 29.6241 491.872 45.6513 491.872 67.2434C491.872 88.8356 479.342 104.863 461.158 104.863C443.307 104.863 430.888 88.8356 430.888 67.2434C430.888 45.6513 443.307 29.6241 461.158 29.6241ZM530.547 17.2698H552.058V37.9716C558.933 23.28 572.016 15.0438 590.866 14.4873V35.523C563.035 36.0795 552.058 46.4304 552.058 71.2502V117.328H530.547V17.2698ZM644.1 104.863C655.077 104.863 663.393 99.9656 666.276 93.065V92.9537H690.115C685.791 109.203 666.609 120 644.1 120C614.828 120 592.874 98.2961 592.874 67.2434C592.874 36.1908 614.939 14.4873 644.1 14.4873C671.266 14.4873 692 35.4117 692 67.1321V74.7005H616.047C618.376 92.3972 629.131 104.863 644.1 104.863ZM669.491 59.5638C667.939 41.9784 658.071 29.7354 644.1 29.7354C629.131 29.7354 618.487 41.9784 616.047 59.5638H669.491Z" fill="white"/>
</svg>
