<svg width="116" height="20" viewBox="0 0 116 20" fill="none" xmlns="http://www.w3.org/2000/svg">
<path fill-rule="evenodd" clip-rule="evenodd" d="M15.2969 0H0V19.5702H3.68017V10.6848H14.0144V7.77245H3.68017V2.91235H15.2969V0ZM25.2775 2.41453C20.2034 2.41453 16.4117 6.03178 16.4117 11.2072C16.4117 16.3827 20.2034 20.0185 25.2775 19.9999C30.3703 19.9999 34.1992 16.3827 34.1992 11.2072C34.1992 6.03178 30.3703 2.41453 25.2775 2.41453ZM25.2961 4.93733C28.3444 4.93733 30.4447 7.60853 30.4447 11.2072C30.4447 14.8059 28.3444 17.4771 25.2961 17.4771C22.3037 17.4771 20.2219 14.8059 20.2219 11.2072C20.2219 7.60853 22.3037 4.93733 25.2961 4.93733ZM36.9135 0H40.5193V19.5517H36.9135V0ZM47.4711 0H43.8653V19.5331H47.4711V13.7826L49.9803 11.5381L55.9466 19.5331H60.519L52.917 9.47905L59.6082 2.87525H55.1102L47.4711 9.88715V0ZM62.3387 0H65.9445V19.5517H62.3387V0ZM77.2855 2.41453C72.2299 2.41453 68.4196 6.03178 68.4196 11.2072C68.4196 16.3827 72.2299 20.0185 77.2855 19.9999C82.3783 19.9999 86.2071 16.3827 86.2071 11.2072C86.2071 6.03178 82.3783 2.41453 77.2855 2.41453ZM77.3041 4.93733C80.3523 4.93733 82.4526 7.60853 82.4526 11.2072C82.4526 14.8059 80.3523 17.4771 77.3041 17.4771C74.3116 17.4771 72.2299 14.8059 72.2299 11.2072C72.2299 7.60853 74.3116 4.93733 77.3041 4.93733ZM88.9357 2.87828H92.5415V6.32858C93.6939 3.87998 95.8871 2.50728 99.0469 2.41453V5.92048C94.3816 6.01323 92.5415 7.73838 92.5415 11.875V19.5547H88.9357V2.87828ZM107.97 17.4771C109.811 17.4771 111.205 16.6609 111.688 15.5108V15.4923H115.684C114.959 18.2006 111.744 19.9999 107.97 19.9999C103.064 19.9999 99.3834 16.3827 99.3834 11.2072C99.3834 6.03178 103.082 2.41453 107.97 2.41453C112.524 2.41453 116 5.90193 116 11.1887V12.4501H103.268C103.658 15.3995 105.461 17.4771 107.97 17.4771ZM112.227 9.92728C111.967 6.99638 110.312 4.95588 107.97 4.95588C105.461 4.95588 103.677 6.99638 103.268 9.92728H112.227Z" fill="black"/>
</svg>
